<svg width="18" height="16" viewBox="0 0 18 16" fill="none" xmlns="http://www.w3.org/2000/svg">
<path d="M12.9837 0.349609C11.2688 0.349609 9.80345 1.53878 8.99836 2.35862C8.19327 1.53878 6.73118 0.349609 5.01709 0.349609C2.06264 0.349609 0 2.35305 0 5.2209C0 8.38088 2.56173 10.4233 5.04 12.3989C6.21 13.3326 7.42091 14.2973 8.34955 15.367C8.50582 15.5461 8.73491 15.6496 8.97545 15.6496H9.02291C9.26427 15.6496 9.49255 15.5453 9.648 15.367C10.5783 14.2973 11.7884 13.3318 12.9592 12.3989C15.4366 10.4241 18 8.38167 18 5.2209C18 2.35305 15.9374 0.349609 12.9837 0.349609Z" fill="#F86624"/>
</svg>
